<svg width="1024" height="1024" version="1.1" xmlns="http://www.w3.org/2000/svg" desc="Created with imagetracer.js version 1.2.6" ><path fill="rgb(200,177,181)" stroke="rgb(200,177,181)" stroke-width="1" opacity="1" d="M 331.5 231 L 361.5 232 L 383.5 237 L 401.5 244 Q 432.6 258.9 456 281.5 Q 455.3 283.8 457.5 283 L 461 288 L 464 289.5 Q 491.3 318.2 510.5 355 Q 535 305 574.5 270 Q 596.8 250.8 626.5 239 L 652.5 232 Q 658.8 233.8 660.5 231 L 682.5 231 L 707.5 236 L 727.5 244 Q 746.1 254.4 760 269.5 Q 778.5 289 787 318.5 L 791 339.5 L 791 370.5 L 790 371.5 L 788 391.5 L 784 404.5 L 784 408.5 Q 777.1 432.1 766 451.5 L 743 486.5 L 701.5 533 L 699 534.5 Q 699.8 536.8 697.5 536 Q 622.9 608.4 527 659.5 L 560.5 675 L 608.5 691 L 655.5 701 L 677.5 703 L 678.5 704 L 705 705 L 703 688.5 L 704 687.5 L 704 676.5 L 707 664.5 Q 714.4 646.3 728.5 635 Q 739 627 753.5 623 L 772.5 621 L 773.5 622 L 783.5 622 L 799.5 627 Q 814.8 634.2 825 646.5 Q 834.1 656.4 838 671.5 L 840 682.5 L 840 695.5 L 835 715.5 Q 828.4 730.4 817.5 741 Q 807.1 751.1 791.5 756 L 783.5 758 L 764.5 758 Q 735.2 752.8 720 733.5 L 711.5 721 L 682.5 720 L 681.5 719 L 656.5 717 L 607.5 707 L 560.5 692 L 509.5 669 L 493.5 677 L 452.5 692 L 415.5 702 L 400.5 704 L 395.5 706 L 390.5 706 L 371.5 710 L 357.5 711 L 356.5 712 L 336.5 713 L 335.5 714 L 296.5 715 L 295.5 716 L 272.5 716 L 271.5 715 L 241.5 715 L 240.5 714 L 230.5 714 L 229.5 713 L 218.5 713 L 207.5 711 L 204 707.5 L 203 702.5 L 208.5 696 L 225.5 697 L 226.5 698 L 239.5 698 L 240.5 699 L 259.5 699 L 260.5 700 L 300.5 700 L 301.5 699 L 319.5 699 L 320.5 698 L 334.5 698 L 335.5 697 L 354.5 696 L 355.5 695 L 383.5 692 L 389.5 690 L 409.5 687 L 457.5 674 L 484.5 664 L 493 659.5 L 450.5 635 L 384.5 590 Q 341.8 558.2 305 520.5 Q 284.4 499.6 267 475.5 Q 253.1 456.9 243 434.5 Q 234.8 416.7 230 395.5 L 228 377.5 L 227 376.5 L 227 366.5 L 226 365.5 L 226 349.5 L 227 348.5 L 227 338.5 L 228 337.5 L 229 326.5 L 238 299.5 Q 250.2 274.2 270.5 257 L 282.5 248 L 304.5 237 L 318.5 233 L 330.5 232 L 331.5 231 Z M 332 248 L 321 250 L 306 255 L 289 264 L 276 275 Q 261 288 253 307 L 247 323 L 243 343 L 243 374 Q 246 375 244 382 L 249 405 L 256 424 L 275 459 Q 292 483 312 504 Q 351 545 398 579 Q 450 618 510 651 Q 601 603 675 536 Q 717 499 748 451 Q 760 430 768 406 L 773 385 L 774 370 L 775 369 L 775 345 L 774 344 L 774 337 L 772 327 L 764 305 L 752 286 Q 739 269 720 259 L 700 251 L 685 248 L 661 248 Q 659 251 654 249 L 627 257 Q 597 269 578 291 Q 575 290 576 293 L 571 296 L 571 298 L 562 307 Q 563 309 560 308 L 538 339 L 518 375 L 514 379 L 508 379 L 504 377 Q 486 339 459 309 Q 432 278 394 259 L 363 249 Q 356 251 355 248 L 332 248 Z M 766 636 L 758 638 L 741 673 L 736 690 L 734 707 L 733 708 L 733 723 L 736 729 Q 741 735 749 738 L 745 725 L 745 710 L 753 683 Q 764 657 779 637 Q 774 635 766 636 Z M 790 640 Q 765 668 754 708 L 760 705 L 784 682 Q 783 679 786 680 L 786 679 L 808 656 L 809 652 Q 802 643 790 640 Z M 744 643 L 737 647 L 724 661 L 719 673 L 717 683 Q 716 702 724 713 L 726 695 L 730 678 L 737 659 L 745 645 Q 746 642 744 643 Z M 816 660 L 805 674 L 780 698 Q 777 697 778 700 L 771 705 L 771 706 L 781 704 L 803 696 Q 816 691 825 683 Q 824 668 816 660 Z M 825 694 Q 810 704 792 710 L 778 714 L 758 717 L 755 720 L 756 722 L 769 724 L 794 722 L 811 717 L 820 712 L 825 699 L 825 694 Z M 811 726 L 801 730 L 784 733 L 766 733 L 757 731 L 760 738 L 769 743 L 783 743 L 796 739 L 805 734 L 812 727 L 811 726 Z " /><path fill="rgb(0,0,0)" stroke="rgb(0,0,0)" stroke-width="1" opacity="1" d="M 0 0 L 1024 0 L 1024 1024 L 0 1024 L 0 0 Z M 332 231 L 331 232 L 319 233 L 305 237 L 283 248 L 271 257 Q 250 274 238 300 L 229 327 L 228 338 L 227 339 L 227 349 L 226 350 L 226 366 L 227 367 L 227 377 L 228 378 L 230 396 Q 235 417 243 435 Q 253 457 267 476 Q 284 500 305 521 Q 342 558 385 590 L 451 635 L 493 660 L 485 664 L 458 674 L 410 687 L 390 690 L 384 692 L 356 695 L 355 696 L 336 697 L 335 698 L 321 698 L 320 699 L 302 699 L 301 700 L 261 700 L 260 699 L 241 699 L 240 698 L 227 698 L 226 697 L 209 696 L 203 703 L 204 708 L 208 711 L 219 713 L 230 713 L 231 714 L 241 714 L 242 715 L 272 715 L 273 716 L 296 716 L 297 715 L 336 714 L 337 713 L 357 712 L 358 711 L 372 710 L 391 706 L 396 706 L 401 704 L 416 702 L 453 692 L 494 677 L 510 669 L 561 692 L 608 707 L 657 717 L 682 719 L 683 720 L 712 721 L 720 734 Q 735 753 765 758 L 784 758 L 792 756 Q 807 751 818 741 Q 828 730 835 716 L 840 696 L 840 683 L 838 672 Q 834 656 825 647 Q 815 634 800 627 L 784 622 L 774 622 L 773 621 L 754 623 Q 739 627 729 635 Q 714 646 707 665 L 704 677 L 704 688 L 703 689 L 705 705 L 679 704 L 678 703 L 656 701 L 609 691 L 561 675 L 527 660 Q 623 608 698 536 Q 700 537 699 535 L 702 533 L 743 487 L 766 452 Q 777 432 784 409 L 784 405 L 788 392 L 790 372 L 791 371 L 791 340 L 787 319 Q 779 289 760 270 Q 746 254 728 244 L 708 236 L 683 231 L 661 231 Q 659 234 653 232 L 627 239 Q 597 251 575 270 Q 535 305 511 355 Q 491 318 464 290 L 461 288 L 458 283 Q 455 284 456 282 Q 433 259 402 244 L 384 237 L 362 232 L 332 231 Z " /><path fill="rgb(0,0,0)" stroke="rgb(0,0,0)" stroke-width="1" opacity="1" d="M 331.5 248 L 354.5 248 Q 356.2 250.7 362.5 249 L 393.5 259 Q 432.5 277.5 459 308.5 Q 485.7 339 504 377 L 507.5 379 L 513.5 379 L 518 374.5 L 538 338.5 L 560 308 Q 562.7 309.1 562 306.5 L 571 297.5 L 571 296 L 576 292.5 Q 575.3 290.3 577.5 291 Q 597.2 269.2 626.5 257 L 653.5 249 Q 659 250.5 660.5 248 L 684.5 248 L 699.5 251 L 719.5 259 Q 738.7 269.3 752 285.5 L 764 304.5 L 772 326.5 L 774 336.5 L 774 343.5 L 775 344.5 L 775 368.5 L 774 369.5 L 773 384.5 L 768 405.5 Q 760.3 430.3 748 450.5 Q 716.6 498.6 674.5 536 Q 601.3 602.8 509.5 651 Q 450 618.4 397.5 579 Q 351.2 544.8 312 503.5 Q 291.9 482.6 275 458.5 L 256 423.5 L 249 404.5 L 244 381.5 Q 245.7 375.3 243 373.5 L 243 342.5 L 247 322.5 L 253 306.5 Q 261.4 287.9 275.5 275 L 288.5 264 L 305.5 255 L 320.5 250 L 331.5 248 Z " /><path fill="rgb(0,0,0)" stroke="rgb(0,0,0)" stroke-width="1" opacity="1" d="M 765.5 636 Q 774.5 635 779 637 Q 764.2 657.4 753 682.5 L 745 709.5 L 745 724.5 L 749 738 Q 741.1 735.2 736 728.5 L 733 722.5 L 733 707.5 L 734 706.5 L 736 689.5 L 741 672.5 L 758 638 L 765.5 636 Z " /><path fill="rgb(0,0,0)" stroke="rgb(0,0,0)" stroke-width="1" opacity="1" d="M 789.5 640 Q 801.7 643.3 809 651.5 L 808 655.5 L 786 678.5 L 786 680 Q 783.3 678.9 784 681.5 L 759.5 705 L 754 708 Q 764.9 667.6 789.5 640 Z " /><path fill="rgb(0,0,0)" stroke="rgb(0,0,0)" stroke-width="1" opacity="1" d="M 743.5 643 Q 745.8 642.3 745 644.5 L 737 658.5 L 730 677.5 L 726 694.5 L 723.5 713 Q 715.6 702.4 717 682.5 L 719 672.5 L 724 660.5 L 736.5 647 L 743.5 643 Z " /><path fill="rgb(0,0,0)" stroke="rgb(0,0,0)" stroke-width="1" opacity="1" d="M 815.5 660 Q 823.8 667.8 825 682.5 Q 815.6 691.1 802.5 696 L 780.5 704 L 770.5 706 L 770.5 705 L 778 700 Q 776.9 697.3 779.5 698 L 805 673.5 L 815.5 660 Z " /><path fill="rgb(0,0,0)" stroke="rgb(0,0,0)" stroke-width="1" opacity="1" d="M 824.5 694 L 825 698.5 L 820 712 L 810.5 717 L 793.5 722 L 768.5 724 L 756 722 L 755 719.5 L 757.5 717 L 777.5 714 L 791.5 710 Q 809.6 703.6 824.5 694 Z " /><path fill="rgb(0,0,0)" stroke="rgb(0,0,0)" stroke-width="1" opacity="1" d="M 810.5 726 L 812 726.5 L 804.5 734 L 795.5 739 L 782.5 743 L 768.5 743 L 760 737.5 L 757 731 L 765.5 733 L 783.5 733 L 800.5 730 L 810.5 726 Z " /></svg>